#N canvas 0 0 1920 976 16;
#X obj 815 -705 openpanel;
#X obj 832 -770 bng 30 250 50 0 empty empty empty 17 7 0 10 -262144
-1 -1;
#X msg 815 -662 read \$1 cr;
#X obj 941 -600 textfile;
#X obj 1170 518 dac~;
#X obj 941 -641 bng 30 250 50 0 empty empty empty 17 7 0 10 -262144
-1 -1;
#X msg 1002 -641 rewind;
#X obj 941 -714 tgl 30 0 empty empty empty 17 7 0 10 -262144 -1 -1
0 1;
#X floatatom 892 -447 5 0 0 0 - - -;
#X floatatom 999 -520 5 0 0 0 - - -;
#X floatatom 892 -520 10 0 0 0 - - -;
#X obj 941 -564 unpack f f f;
#X floatatom 1058 -519 5 0 0 0 - - -;
#X obj 892 -482 / 10000;
#X obj 892 -413 moses 15;
#X floatatom 892 -380 5 0 0 0 - - -;
#X obj 969 -379 moses 16;
#X floatatom 1046 -346 5 0 0 0 - - -;
#X floatatom 969 -346 5 0 0 0 - - -;
#X obj 936 -316 moses 15.5;
#X obj 1046 -316 moses 16.5;
#X obj 827 -316 moses 14.5;
#X floatatom 1022 -276 5 0 0 0 - - -;
#X floatatom 1143 -276 5 0 0 0 - - -;
#X floatatom 1082 -275 5 0 0 0 - - -;
#X floatatom 827 -273 5 0 0 0 - - -;
#X floatatom 960 -275 5 0 0 0 - - -;
#X floatatom 894 -275 5 0 0 0 - - -;
#X obj 551 63 vsl 30 200 0 1 0 0 empty empty empty 0 -9 0 10 -262144
-1 -1 0 1;
#X floatatom 551 282 5 0 0 0 - - -;
#X obj 749 50 vsl 30 200 0 1 0 0 empty empty empty 0 -9 0 10 -262144
-1 -1 0 1;
#X floatatom 749 280 5 0 0 0 - - -;
#X obj 1520 56 vsl 30 200 0 1 0 0 empty empty empty 0 -9 0 10 -262144
-1 -1 6487 1;
#X floatatom 1520 277 5 0 0 0 - - -;
#X obj 930 52 vsl 30 200 0 1 0 0 empty empty empty 0 -9 0 10 -262144
-1 -1 0 1;
#X floatatom 930 276 5 0 0 0 - - -;
#X obj 1169 49 vsl 30 200 0 1 0 0 empty empty empty 0 -9 0 10 -262144
-1 -1 0 1;
#X floatatom 1169 273 5 0 0 0 - - -;
#X obj 1344 51 vsl 30 200 0 1 0 0 empty empty empty 0 -9 0 10 -262144
-1 -1 0 1;
#X floatatom 1344 270 5 0 0 0 - - -;
#X obj 1182 484 *~;
#X obj 827 -231 bng 30 250 50 0 empty empty empty 17 7 0 10 -262144
-1 -1;
#X obj 894 -232 bng 30 250 50 0 empty empty empty 17 7 0 10 -262144
-1 -1;
#X obj 960 -232 bng 30 250 50 0 empty empty empty 17 7 0 10 -262144
-1 -1;
#X obj 1022 -235 bng 30 250 50 0 empty empty empty 17 7 0 10 -262144
-1 -1;
#X obj 1082 -236 bng 30 250 50 0 empty empty empty 17 7 0 10 -262144
-1 -1;
#X obj 1143 -235 bng 30 250 50 0 empty empty empty 17 7 0 10 -262144
-1 -1;
#X obj 442 243 * 100;
#X obj 1419 190 random 10;
#X floatatom 442 278 5 0 0 0 - - -;
#X obj 647 242 * 100;
#X obj 827 244 * 100;
#X obj 1072 235 * 100;
#X obj 1249 235 * 100;
#X obj 1419 237 * 100;
#X obj 442 201 random 2;
#X obj 647 200 random 4;
#X obj 1072 193 random 7;
#X obj 827 202 random 5;
#X obj 1249 193 random 9;
#X floatatom 647 280 5 0 0 0 - - -;
#X floatatom 827 277 5 0 0 0 - - -;
#X floatatom 1072 271 5 0 0 0 - - -;
#X floatatom 1249 270 5 0 0 0 - - -;
#X floatatom 1419 273 5 0 0 0 - - -;
#X msg 498 30 0.114;
#X msg 699 18 0.266;
#X msg 872 20 0.884;
#X msg 1110 17 0.733;
#X msg 1285 19 0.547;
#X msg 1461 24 0.326;
#X msg 573 27 0;
#X msg 773 18 0;
#X msg 960 20 0;
#X msg 1189 18 0;
#X msg 1356 19 0;
#X msg 1541 23 0;
#X obj 699 353 osc~;
#X obj 883 345 osc~;
#X obj 1128 337 osc~;
#X obj 1294 330 osc~;
#X obj 1463 330 osc~;
#X obj 607 409 *~;
#X obj 1018 394 *~;
#X obj 1384 379 *~;
#X obj 821 445 *~;
#X obj 941 -673 metro 100;
#X obj 501 361 osc~;
#X text 27 -750 Bram Moons Media In Performance Erasmushogeschool Brussel
;
#X connect 0 0 2 0;
#X connect 1 0 0 0;
#X connect 1 0 7 0;
#X connect 2 0 3 0;
#X connect 3 0 11 0;
#X connect 3 1 6 0;
#X connect 5 0 3 0;
#X connect 6 0 3 0;
#X connect 7 0 86 0;
#X connect 8 0 14 0;
#X connect 10 0 13 0;
#X connect 11 0 10 0;
#X connect 11 1 9 0;
#X connect 11 2 12 0;
#X connect 13 0 8 0;
#X connect 14 0 15 0;
#X connect 14 1 16 0;
#X connect 15 0 21 0;
#X connect 16 0 18 0;
#X connect 16 1 17 0;
#X connect 17 0 20 0;
#X connect 18 0 19 0;
#X connect 19 0 26 0;
#X connect 19 1 22 0;
#X connect 20 0 24 0;
#X connect 20 1 23 0;
#X connect 21 0 25 0;
#X connect 21 1 27 0;
#X connect 22 0 44 0;
#X connect 23 0 46 0;
#X connect 24 0 45 0;
#X connect 25 0 41 0;
#X connect 26 0 43 0;
#X connect 27 0 42 0;
#X connect 28 0 29 0;
#X connect 29 0 87 1;
#X connect 30 0 31 0;
#X connect 31 0 77 1;
#X connect 32 0 33 0;
#X connect 33 0 81 1;
#X connect 34 0 35 0;
#X connect 35 0 78 1;
#X connect 36 0 37 0;
#X connect 37 0 79 1;
#X connect 38 0 39 0;
#X connect 39 0 80 1;
#X connect 40 0 4 0;
#X connect 40 0 4 1;
#X connect 41 0 65 0;
#X connect 41 0 72 0;
#X connect 41 0 73 0;
#X connect 41 0 74 0;
#X connect 41 0 75 0;
#X connect 41 0 76 0;
#X connect 41 0 55 0;
#X connect 42 0 71 0;
#X connect 42 0 66 0;
#X connect 42 0 73 0;
#X connect 42 0 74 0;
#X connect 42 0 75 0;
#X connect 42 0 76 0;
#X connect 42 0 56 0;
#X connect 43 0 71 0;
#X connect 43 0 72 0;
#X connect 43 0 67 0;
#X connect 43 0 74 0;
#X connect 43 0 75 0;
#X connect 43 0 76 0;
#X connect 43 0 58 0;
#X connect 44 0 71 0;
#X connect 44 0 72 0;
#X connect 44 0 73 0;
#X connect 44 0 68 0;
#X connect 44 0 75 0;
#X connect 44 0 76 0;
#X connect 44 0 57 0;
#X connect 45 0 71 0;
#X connect 45 0 72 0;
#X connect 45 0 73 0;
#X connect 45 0 74 0;
#X connect 45 0 69 0;
#X connect 45 0 76 0;
#X connect 45 0 59 0;
#X connect 46 0 71 0;
#X connect 46 0 72 0;
#X connect 46 0 73 0;
#X connect 46 0 74 0;
#X connect 46 0 75 0;
#X connect 46 0 70 0;
#X connect 46 0 48 0;
#X connect 47 0 49 0;
#X connect 48 0 54 0;
#X connect 49 0 87 0;
#X connect 50 0 60 0;
#X connect 51 0 61 0;
#X connect 52 0 62 0;
#X connect 53 0 63 0;
#X connect 54 0 64 0;
#X connect 55 0 47 0;
#X connect 56 0 50 0;
#X connect 57 0 52 0;
#X connect 58 0 51 0;
#X connect 59 0 53 0;
#X connect 60 0 77 0;
#X connect 61 0 78 0;
#X connect 62 0 79 0;
#X connect 63 0 80 0;
#X connect 64 0 81 0;
#X connect 65 0 28 0;
#X connect 66 0 30 0;
#X connect 67 0 34 0;
#X connect 68 0 36 0;
#X connect 69 0 38 0;
#X connect 70 0 32 0;
#X connect 71 0 28 0;
#X connect 72 0 30 0;
#X connect 73 0 34 0;
#X connect 74 0 36 0;
#X connect 75 0 38 0;
#X connect 76 0 32 0;
#X connect 77 0 82 1;
#X connect 78 0 83 0;
#X connect 79 0 83 1;
#X connect 80 0 84 0;
#X connect 81 0 84 1;
#X connect 82 0 85 0;
#X connect 83 0 85 1;
#X connect 84 0 40 1;
#X connect 85 0 40 0;
#X connect 86 0 5 0;
#X connect 87 0 82 0;
